<svg width="260" height="250" viewBox="0 0 260 250" fill="none" xmlns="http://www.w3.org/2000/svg">
<path d="M40.479 238.379C42.0206 229.655 45.37 221.966 50.0079 216.503C54.6458 211.04 60.3132 208.109 66.1314 208.164C71.9496 208.219 77.5936 211.257 82.1883 216.808C86.7831 222.358 90.0719 230.111 91.5449 238.864C91.5449 238.864 91.8563 241.285 91.8563 242.253C92.1677 246.611 94.0359 250 96.8383 250H126.731C129.533 250 131.713 246.611 131.713 242.253V240.8C128.599 188.023 100.263 146.867 65.7006 146.867C31.4491 146.383 3.11377 188.023 0 240.316V241.769C0 246.126 2.17964 249.516 4.98204 249.516H35.497C38.2994 249.516 39.5449 246.611 40.1677 241.285L40.479 238.379Z" fill="#19B4B8"/>
<path d="M173.437 0.640984C169.701 -1.77998 166.587 3.06194 166.275 8.38806L161.916 52.4495C161.293 57.7757 162.228 66.4911 165.964 71.333L167.832 73.754L168.144 74.2382L168.455 74.7224C199.593 115.879 217.964 173.982 220.144 237.411V240.8C220.144 246.126 222.946 250 226.06 250H254.084C257.198 250 259.689 246.126 260 241.285C258.443 154.13 234.156 56.3231 173.437 0.640984Z" fill="#04529D"/>
<path d="M85.3173 83.9221C135.449 94.5743 174.06 160.424 177.485 239.348L177.796 242.737C178.108 247.095 180.287 250 183.09 250H212.671C215.162 250 217.341 246.611 217.341 242.737C215.162 129.436 160.048 35.0187 87.497 22.4297C83.1377 21.4613 80.958 26.3032 80.6467 30.1767L78.7784 68.4279L78.467 75.2066C78.1556 79.5643 80.958 82.4695 83.1377 82.9537L85.3173 83.9221Z" fill="#0A6BB4"/>
<path d="M67.8802 83.4379C52.3114 83.4379 36.7425 88.764 22.7305 98.932L20.5509 100.869C17.7485 103.29 16.503 109.1 18.3713 113.942L25.5329 133.794L31.4491 148.804C33.006 153.162 36.1198 154.614 39.2335 152.193L41.7246 150.741C49.8204 145.899 58.5389 143.478 67.2575 143.478C101.82 143.478 131.09 186.571 134.515 238.864L134.826 242.253C135.138 246.611 137.317 249.516 140.12 249.516H169.701C172.503 249.516 174.683 246.126 174.683 241.769C173.341 199.111 161.506 158.888 141.627 129.418C121.748 99.9478 95.3455 83.4862 67.8802 83.4379Z" fill="#0697AD"/>
</svg>
