<svg width="137" height="54" viewBox="0 0 137 54" fill="none" xmlns="http://www.w3.org/2000/svg">
<path d="M0 17.3801C0 15.5974 0.949247 13.9494 2.49141 13.055L22.4914 1.45498C24.0428 0.55519 25.9572 0.55519 27.5086 1.45498L47.5086 13.055C49.0508 13.9494 50 15.5974 50 17.3801V29.5C50 32.2614 47.7614 34.5 45 34.5H25H5C2.23858 34.5 0 32.2614 0 29.5V17.3801Z" fill="#212529"/>
<path d="M50 36.6199C50 38.4026 49.0508 40.0506 47.5086 40.945L27.5086 52.545C25.9572 53.4448 24.0428 53.4448 22.4914 52.545L2.49141 40.945C0.949245 40.0506 0 38.4026 0 36.6199L0 24.5C0 21.7386 2.23857 19.5 5 19.5L25 19.5H45C47.7614 19.5 50 21.7386 50 24.5L50 36.6199Z" fill="#212529"/>
<rect width="13.2237" height="28.0503" rx="2" transform="matrix(0.706864 -0.707349 0.706864 0.707349 12 15.3536)" fill="#42DE5A"/>
<rect width="13.2237" height="28.0503" rx="2" transform="matrix(0.706864 0.707349 -0.706864 0.707349 32.6528 17.3628)" fill="#FF5510"/>
<path d="M32.6528 17.3628L40.5865 25.3019C41.3672 26.0832 41.3672 27.3499 40.5865 28.1313L32.9361 35.7869L23.5887 26.4331L32.6528 17.3628Z" fill="#8057E1"/>
<path d="M62.012 37L57.7 29.384H55.852V37H51.932V17.456H59.268C60.78 17.456 62.068 17.7267 63.132 18.268C64.196 18.7907 64.9893 19.5093 65.512 20.424C66.0533 21.32 66.324 22.328 66.324 23.448C66.324 24.736 65.9507 25.9027 65.204 26.948C64.4573 27.9747 63.3467 28.684 61.872 29.076L66.548 37H62.012ZM55.852 26.444H59.128C60.192 26.444 60.9853 26.192 61.508 25.688C62.0307 25.1653 62.292 24.4467 62.292 23.532C62.292 22.636 62.0307 21.9453 61.508 21.46C60.9853 20.956 60.192 20.704 59.128 20.704H55.852V26.444ZM68.8615 29.188C68.8615 27.62 69.1695 26.2293 69.7855 25.016C70.4202 23.8027 71.2695 22.8693 72.3335 22.216C73.4162 21.5627 74.6202 21.236 75.9455 21.236C77.1028 21.236 78.1108 21.4693 78.9695 21.936C79.8468 22.4027 80.5468 22.9907 81.0695 23.7V21.488H85.0175V37H81.0695V34.732C80.5655 35.46 79.8655 36.0667 78.9695 36.552C78.0922 37.0187 77.0748 37.252 75.9175 37.252C74.6108 37.252 73.4162 36.916 72.3335 36.244C71.2695 35.572 70.4202 34.6293 69.7855 33.416C69.1695 32.184 68.8615 30.7747 68.8615 29.188ZM81.0695 29.244C81.0695 28.292 80.8828 27.48 80.5095 26.808C80.1362 26.1173 79.6322 25.5947 78.9975 25.24C78.3628 24.8667 77.6815 24.68 76.9535 24.68C76.2255 24.68 75.5535 24.8573 74.9375 25.212C74.3215 25.5667 73.8175 26.0893 73.4255 26.78C73.0522 27.452 72.8655 28.2547 72.8655 29.188C72.8655 30.1213 73.0522 30.9427 73.4255 31.652C73.8175 32.3427 74.3215 32.8747 74.9375 33.248C75.5722 33.6213 76.2442 33.808 76.9535 33.808C77.6815 33.808 78.3628 33.6307 78.9975 33.276C79.6322 32.9027 80.1362 32.38 80.5095 31.708C80.8828 31.0173 81.0695 30.196 81.0695 29.244ZM87.8381 29.188C87.8381 27.62 88.1461 26.2293 88.7621 25.016C89.3967 23.8027 90.2554 22.8693 91.3381 22.216C92.4207 21.5627 93.6247 21.236 94.9501 21.236C95.9581 21.236 96.9194 21.46 97.8341 21.908C98.7487 22.3373 99.4767 22.916 100.018 23.644V16.28H103.994V37H100.018V34.704C99.5327 35.4693 98.8514 36.0853 97.9741 36.552C97.0967 37.0187 96.0794 37.252 94.9221 37.252C93.6154 37.252 92.4207 36.916 91.3381 36.244C90.2554 35.572 89.3967 34.6293 88.7621 33.416C88.1461 32.184 87.8381 30.7747 87.8381 29.188ZM100.046 29.244C100.046 28.292 99.8594 27.48 99.4861 26.808C99.1127 26.1173 98.6087 25.5947 97.9741 25.24C97.3394 24.8667 96.6581 24.68 95.9301 24.68C95.2021 24.68 94.5301 24.8573 93.9141 25.212C93.2981 25.5667 92.7941 26.0893 92.4021 26.78C92.0287 27.452 91.8421 28.2547 91.8421 29.188C91.8421 30.1213 92.0287 30.9427 92.4021 31.652C92.7941 32.3427 93.2981 32.8747 93.9141 33.248C94.5487 33.6213 95.2207 33.808 95.9301 33.808C96.6581 33.808 97.3394 33.6307 97.9741 33.276C98.6087 32.9027 99.1127 32.38 99.4861 31.708C99.8594 31.0173 100.046 30.196 100.046 29.244ZM106.815 29.188C106.815 27.62 107.123 26.2293 107.739 25.016C108.373 23.8027 109.223 22.8693 110.287 22.216C111.369 21.5627 112.573 21.236 113.899 21.236C115.056 21.236 116.064 21.4693 116.923 21.936C117.8 22.4027 118.5 22.9907 119.023 23.7V21.488H122.971V37H119.023V34.732C118.519 35.46 117.819 36.0667 116.923 36.552C116.045 37.0187 115.028 37.252 113.871 37.252C112.564 37.252 111.369 36.916 110.287 36.244C109.223 35.572 108.373 34.6293 107.739 33.416C107.123 32.184 106.815 30.7747 106.815 29.188ZM119.023 29.244C119.023 28.292 118.836 27.48 118.463 26.808C118.089 26.1173 117.585 25.5947 116.951 25.24C116.316 24.8667 115.635 24.68 114.907 24.68C114.179 24.68 113.507 24.8573 112.891 25.212C112.275 25.5667 111.771 26.0893 111.379 26.78C111.005 27.452 110.819 28.2547 110.819 29.188C110.819 30.1213 111.005 30.9427 111.379 31.652C111.771 32.3427 112.275 32.8747 112.891 33.248C113.525 33.6213 114.197 33.808 114.907 33.808C115.635 33.808 116.316 33.6307 116.951 33.276C117.585 32.9027 118.089 32.38 118.463 31.708C118.836 31.0173 119.023 30.196 119.023 29.244ZM130.719 23.896C131.223 23.0747 131.877 22.4307 132.679 21.964C133.501 21.4973 134.434 21.264 135.479 21.264V25.38H134.443C133.211 25.38 132.278 25.6693 131.643 26.248C131.027 26.8267 130.719 27.8347 130.719 29.272V37H126.799V21.488H130.719V23.896Z" fill="#212529"/>
</svg>
